<svg width="25" height="17" viewBox="0 0 25 17" fill="none" xmlns="http://www.w3.org/2000/svg">
<path d="M23.4652 9.75605L1.92644 16.9369C1.53755 17.0716 1.19354 16.9893 0.894417 16.6902C0.857027 16.6528 0.80842 16.5893 0.748598 16.4995C0.621476 16.2976 0.572881 16.0807 0.602811 15.8489C0.632741 15.6171 0.729976 15.4189 0.894515 15.2543L7.35644 8.79242L0.895402 2.33138C0.730885 2.16687 0.633677 1.96869 0.603779 1.73686C0.57388 1.50502 0.622506 1.28814 0.749655 1.08621C0.876804 0.884283 1.04882 0.742178 1.26571 0.659899C1.48259 0.57762 1.70321 0.573866 1.92756 0.648636L23.4653 7.82658C23.6149 7.87144 23.7495 7.9537 23.8692 8.07334C24.0711 8.27525 24.1683 8.51456 24.1608 8.79127C24.1682 9.00814 24.1084 9.20633 23.9812 9.38582C23.8541 9.56532 23.6821 9.68873 23.4652 9.75605Z" fill="#0E2F4A"/>
</svg>
