<svg width="23" height="23" viewBox="0 0 23 23" fill="none" xmlns="http://www.w3.org/2000/svg">
<path d="M22.2211 1.47549L12.0686 21.7834C11.8888 22.1535 11.5874 22.3386 11.1644 22.3386C11.1115 22.3386 11.0322 22.3281 10.9264 22.3069C10.6938 22.254 10.5061 22.135 10.3633 21.9499C10.2205 21.7648 10.1491 21.5559 10.1491 21.3233L10.1491 12.1847H1.01185C0.779192 12.1847 0.570325 12.1133 0.385253 11.9705C0.20018 11.8277 0.0812052 11.64 0.0283274 11.4073C-0.0245504 11.1746 -0.00339929 10.9525 0.0917807 10.741C0.186961 10.5294 0.340306 10.3708 0.551818 10.265L20.8569 0.111059C20.9944 0.0370195 21.1477 0 21.3169 0C21.6025 0 21.8404 0.100482 22.0308 0.301445C22.1894 0.449523 22.2872 0.631976 22.3243 0.848805C22.3613 1.06563 22.3269 1.27453 22.2211 1.47549Z" fill="#0E2F4A"/>
</svg>
