<svg width="17" height="25" viewBox="0 0 17 25" fill="none" xmlns="http://www.w3.org/2000/svg">
<path d="M9.95726 1.14076L16.8416 22.7761C16.9708 23.1668 16.8839 23.5097 16.5807 23.8047C16.5428 23.8415 16.4786 23.8893 16.388 23.9479C16.1844 24.0722 15.9668 24.1178 15.7354 24.0847C15.504 24.0516 15.3072 23.9516 15.1449 23.7848L8.7724 17.2348L2.22321 23.6064C2.05645 23.7687 1.85696 23.8631 1.62474 23.8898C1.39251 23.9166 1.17632 23.865 0.976157 23.735C0.775993 23.6051 0.636266 23.4312 0.556974 23.2132C0.477682 22.9952 0.476959 22.7745 0.554805 22.5512L8.02797 1.11412C8.07488 0.965179 8.15898 0.831712 8.28026 0.713719C8.48492 0.514605 8.72554 0.420697 9.00212 0.431995C9.21908 0.427512 9.41643 0.490072 9.59416 0.619672C9.77189 0.749275 9.89292 0.922969 9.95726 1.14076Z" fill="#0E2F4A"/>
</svg>
