<svg width="14" height="10" viewBox="0 0 14 10" fill="none" xmlns="http://www.w3.org/2000/svg">
<path d="M12.6704 5.16883L0.884486 9.09819C0.671684 9.17186 0.483445 9.12686 0.319767 8.96318C0.299307 8.94272 0.27271 8.90794 0.239975 8.85883C0.170415 8.74835 0.143824 8.62968 0.160201 8.50282C0.176579 8.37596 0.229785 8.26751 0.319821 8.17747L3.85575 4.64154L0.320306 1.10609C0.230283 1.01607 0.177091 0.907627 0.160731 0.780769C0.144371 0.65391 0.170979 0.535234 0.240554 0.424739C0.31013 0.314244 0.404256 0.236485 0.522934 0.191462C0.641612 0.146439 0.762333 0.144385 0.885097 0.185299L12.6705 4.11304C12.7523 4.13758 12.826 4.18259 12.8914 4.24806C13.0019 4.35855 13.0551 4.4895 13.051 4.64091C13.0551 4.75958 13.0223 4.86803 12.9528 4.96625C12.8832 5.06447 12.7891 5.13199 12.6704 5.16883Z" fill="#0E2F4A"/>
</svg>
