<svg width="10" height="14" viewBox="0 0 10 14" fill="none" xmlns="http://www.w3.org/2000/svg">
<path d="M5.27825 0.623509L9.04531 12.4623C9.11605 12.6761 9.06847 12.8637 8.90256 13.0251C8.88182 13.0453 8.84667 13.0714 8.79712 13.1034C8.68569 13.1715 8.56667 13.1964 8.44004 13.1783C8.31342 13.1602 8.20571 13.1055 8.11692 13.0142L4.6299 9.43007L1.04622 12.9166C0.954964 13.0054 0.845803 13.0571 0.718732 13.0717C0.591661 13.0863 0.473361 13.0581 0.363832 12.987C0.254303 12.9159 0.177845 12.8207 0.134457 12.7014C0.0910688 12.5822 0.0906732 12.4614 0.13327 12.3392L4.22255 0.608931C4.24822 0.527433 4.29424 0.454401 4.3606 0.389835C4.47259 0.280881 4.60426 0.229495 4.7556 0.235678C4.87432 0.233224 4.98231 0.267456 5.07956 0.338374C5.17682 0.409292 5.24304 0.504336 5.27825 0.623509Z" fill="#0E2F4A"/>
</svg>
