<svg width="13" height="13" viewBox="0 0 13 13" fill="none" xmlns="http://www.w3.org/2000/svg">
<path d="M12.1593 0.807383L6.60388 11.9198C6.50551 12.1223 6.34058 12.2236 6.1091 12.2236C6.08017 12.2236 6.03677 12.2178 5.9789 12.2062C5.85159 12.1773 5.74887 12.1122 5.67075 12.0109C5.59262 11.9096 5.55356 11.7953 5.55356 11.668L5.55356 6.66742H0.553682C0.42637 6.66742 0.312079 6.62835 0.210808 6.55022C0.109538 6.47209 0.0444351 6.36935 0.0155006 6.24202C-0.0134339 6.1147 -0.00186007 5.99315 0.050222 5.8774C0.102304 5.76165 0.186214 5.67483 0.301952 5.61695L11.4128 0.0607708C11.488 0.0202569 11.5719 0 11.6645 0C11.8208 0 11.951 0.0549831 12.0551 0.164949C12.1419 0.245977 12.1955 0.345815 12.2157 0.464462C12.236 0.58311 12.2172 0.697417 12.1593 0.807383Z" fill="#0E2F4A"/>
</svg>
